<?xml version="1.0" encoding="UTF-8" standalone="no"?><!DOCTYPE svg PUBLIC "-//W3C//DTD SVG 1.1//EN" "http://www.w3.org/Graphics/SVG/1.1/DTD/svg11.dtd"><svg width="100%" height="100%" viewBox="0 0 1020 1020" version="1.1" xmlns="http://www.w3.org/2000/svg" xmlns:xlink="http://www.w3.org/1999/xlink" xml:space="preserve" xmlns:serif="http://www.serif.com/" style="fill-rule:evenodd;clip-rule:evenodd;stroke-linejoin:round;stroke-miterlimit:2;"><g id="h"><rect id="Rectángulo_2" x="780" y="660" width="120" height="240" style="fill:#fff;"/><path id="Rectángulo_21" serif:id="Rectángulo_2" d="M240,840l0,-120l540,0l0,120l-540,0Z" style="fill:#fff;"/><rect id="Rectángulo_22" serif:id="Rectángulo_2" x="120" y="660" width="120" height="180" style="fill:#fff;"/><rect id="Rectángulo_23" serif:id="Rectángulo_2" x="780" y="660" width="120" height="240"/><path id="Rectángulo_24" serif:id="Rectángulo_2" d="M240,840l0,-120l540,0l0,120l-540,0Z"/><rect id="Rectángulo_25" serif:id="Rectángulo_2" x="120" y="660" width="120" height="180"/></g><g id="D"><rect x="120" y="240" width="120" height="360" style="fill:#7000ff;"/><path d="M480,600l-240,0l0,-120l240,0l0,120Z" style="fill:#7000ff;"/><path d="M480,480l-120,0l0,-60l120,0l0,60Z" style="fill:#7000ff;"/><path d="M480,360l-240,0l0,-120l240,-0l0,120Z" style="fill:#7000ff;"/><path d="M480,240l-120,0l-0,-120l120,0l0,120Z" style="fill:#7000ff;"/><rect x="780" y="240" width="120" height="360" style="fill:#7000ff;"/><path d="M660,480l-120,0l0,-60l120,0l0,60Z" style="fill:#7000ff;"/><path d="M780,600l-240,0l0,-120l240,0l0,120Z" style="fill:#7000ff;"/><path d="M780,360l-240,0l0,-120l240,0l0,120Z" style="fill:#7000ff;"/><path d="M660,240l-120,0l-0,-120l120,0l0,120Z" style="fill:#7000ff;"/></g></svg>