<?xml version="1.0" encoding="UTF-8" standalone="no"?><!DOCTYPE svg PUBLIC "-//W3C//DTD SVG 1.1//EN" "http://www.w3.org/Graphics/SVG/1.1/DTD/svg11.dtd"><svg width="100%" height="100%" viewBox="0 0 1000 1000" version="1.1" xmlns="http://www.w3.org/2000/svg" xmlns:xlink="http://www.w3.org/1999/xlink" xml:space="preserve" xmlns:serif="http://www.serif.com/" style="fill-rule:evenodd;clip-rule:evenodd;stroke-linejoin:round;stroke-miterlimit:2;"><g id="h"><rect id="Rectángulo_1" x="801" y="702.008" width="115.007" height="218.985"/><rect id="Forma_1" x="201.613" y="701.737" width="601.3" height="117.019"/><rect id="Rectángulo_2" x="85.006" y="610.015" width="117.007" height="310.978"/></g><g id="b"><path id="Forma_1-2" d="M916.008,430.988l0,117.019l-272,0l0,-117.019l272,0Zm-272,0l272,0" style="fill:#7000ff;"/><path id="Forma_1-3" d="M915.9,196.5l0,117.019l-291.576,0l0,-117.019l291.576,0Zm-291.578,0l291.578,0" style="fill:#7000ff;"/><rect id="Forma_1-4" x="800.01" y="309.99" width="116" height="125.025" style="fill:#7000ff;"/><rect id="Forma_1-5" x="527" y="79" width="116.984" height="234.988" style="fill:#7000ff;"/><rect id="Forma_1-6" x="527" y="366.987" width="116.984" height="181.029" style="fill:#7000ff;"/></g><g id="D"><rect id="Forma_1-7" x="346.991" y="79" width="117.009" height="234.988" style="fill:#7000ff;"/><rect id="Forma_1-8" x="85" y="430.988" width="263" height="117.019" style="fill:#7000ff;"/><rect id="Forma_1-9" x="84.5" y="196.5" width="292.742" height="117.019" style="fill:#7000ff;"/><rect id="Forma_1-10" x="85" y="309.99" width="116.991" height="125.025" style="fill:#7000ff;"/><rect id="Forma_1-11" x="346.991" y="365.987" width="117.009" height="182.029" style="fill:#7000ff;"/></g></svg>